<?xml version="1.0" encoding="utf-8"?>
<!-- Generator: Adobe Illustrator 24.1.3, SVG Export Plug-In . SVG Version: 6.00 Build 0)  -->
<svg version="1.1" xmlns="http://www.w3.org/2000/svg" xmlns:xlink="http://www.w3.org/1999/xlink" x="0px" y="0px" width="58px"
	 height="58px" viewBox="0 0 58 58" style="enable-background:new 0 0 58 58;" xml:space="preserve">
<style type="text/css">
	.st0{fill:#696969;}
	.st1{fill:#FFFFFF;}
	.st2{display:none;}
	.st3{display:inline;fill:#97D0C5;}
	.st4{display:inline;}
	.st5{fill:none;}
	.st6{fill:#585657;}
</style>
<g id="icon">
	<g>
		<g>
			<g>
				<g>
					
						<rect x="13" y="42.7" transform="matrix(-1.836970e-16 1 -1 -1.836970e-16 57.4624 29.3441)" class="st0" width="2.1" height="1.4"/>
				</g>
			</g>
			<g>
				<g>
					<g>
						<path class="st0" d="M46.8,44.8H11.2L46.8,9.2V44.8z M12.8,44.1h33.2V10.8L12.8,44.1z"/>
					</g>
				</g>
				<g>
					<g>
						<path class="st0" d="M40.5,38.9H26l14.6-14.6V38.9z M27.6,38.2h12.2V26L27.6,38.2z"/>
					</g>
				</g>
				<g>
					<g>
						<g>
							
								<rect x="38.6" y="43.2" transform="matrix(-4.385311e-11 1 -1 -4.385311e-11 82.9609 3.8936)" class="st0" width="1.9" height="0.5"/>
						</g>
					</g>
				</g>
				<g>
					<g>
						<g>
							
								<rect x="17.9" y="43.2" transform="matrix(-4.432917e-11 1 -1 -4.432917e-11 62.3111 24.5434)" class="st0" width="1.9" height="0.5"/>
						</g>
					</g>
				</g>
				<g>
					<g>
						<g>
							
								<rect x="24.8" y="43.2" transform="matrix(-4.528307e-11 1 -1 -4.528307e-11 69.1944 17.6601)" class="st0" width="1.9" height="0.5"/>
						</g>
					</g>
				</g>
				<g>
					<g>
						<g>
							
								<rect x="31.7" y="43.2" transform="matrix(-4.575914e-11 1 -1 -4.575914e-11 76.0776 10.7769)" class="st0" width="1.9" height="0.5"/>
						</g>
					</g>
				</g>
				<g>
					<g>
						<g>
							<rect x="44.5" y="16.7" class="st0" width="1.9" height="0.5"/>
						</g>
					</g>
				</g>
				<g>
					<g>
						<g>
							<rect x="44.5" y="37.4" class="st0" width="1.9" height="0.5"/>
						</g>
					</g>
				</g>
				<g>
					<g>
						<g>
							<rect x="44.5" y="30.5" class="st0" width="1.9" height="0.5"/>
						</g>
					</g>
				</g>
				<g>
					<g>
						<g>
							<rect x="44.5" y="23.6" class="st0" width="1.9" height="0.5"/>
						</g>
					</g>
				</g>
			</g>
		</g>
		<g>
			<path class="st1" d="M5.5,42.8C4.4,37,6.1,29.4,11.9,28.2c5.8-1.2,11.4,4.5,12.6,10.3c1.2,5.8-2.5,11.4-8.3,12.6
				S6.7,48.5,5.5,42.8z"/>
		</g>
		<g>
			<g>
				<path class="st0" d="M10.5,44c-0.6,0-1.3-0.2-1.8-0.5c-0.7-0.5-1.3-1.2-1.4-2.1c-0.3-1.2,0.1-2.6,1-3.9c1.5-2.2,3.2-3,4.9-2.5
					c0.6,0.2,1.3-0.6,1.6-1.1c1.4-2.3,2.7-4.3,2.7-4.3l0.2-0.3l1.6,2.5l-0.2,0.2c-2.6,2.4-3.5,3.8-3.8,5.8c0,0.3,0.1,0.7,0,1
					c0,0.4,0.2,0.8,0.3,1c0.1,0.1,0.5,0.6,0.3,1c-0.1,0.2-0.2,0.3-0.7,0.3l-0.1,0c-0.3,0-0.5,0-0.7,0.2l-0.1,0.1
					c0,0.1-0.1,0.1-0.1,0.1c-0.8,1.4-1.9,2.2-3,2.5C11,43.9,10.8,44,10.5,44z M12.1,35.3c-1.5,0-2.8,1.4-3.4,2.4
					c-0.8,1.2-1.1,2.4-0.9,3.5c0.2,0.8,0.6,1.4,1.2,1.8c0.7,0.4,1.4,0.6,2.2,0.4c1-0.2,1.9-1,2.7-2.3c0,0,0.1-0.1,0.1-0.2l0.1-0.2
					c0.5-0.4,0.8-0.4,1.2-0.4l0.1,0c0.1,0,0.1,0,0.1,0c0-0.1-0.1-0.3-0.2-0.3c-0.4-0.3-0.5-1-0.5-1.4c0-0.4,0-0.7,0-1l0,0l0,0
					c0.3-2.1,1.2-3.6,3.8-6l-0.9-1.4c-0.4,0.7-1.5,2.2-2.5,3.9c-0.3,0.5-1.2,1.6-2.2,1.3C12.6,35.3,12.4,35.3,12.1,35.3z M10.5,42.4
					c-0.4,0-0.8-0.1-1.2-0.4c-1.2-0.8-1.3-2.4-0.2-4.1c0.7-1,1.5-1.7,2.3-1.8c0.6-0.1,1.2,0,1.8,0.4c1.1,0.8,1.2,2.3,0.1,4l0,0
					c-0.7,1-1.5,1.7-2.4,1.9C10.8,42.4,10.7,42.4,10.5,42.4z M12,36.6c-0.1,0-0.2,0-0.4,0c-0.7,0.1-1.4,0.7-2,1.6
					c-0.9,1.4-0.9,2.7,0,3.3c0.3,0.2,0.7,0.3,1.2,0.2c0.7-0.1,1.5-0.7,2.1-1.6c0.9-1.4,1-2.7,0.1-3.3C12.7,36.8,12.4,36.6,12,36.6z"
					/>
			</g>
			<g>
				<path class="st0" d="M18.1,48.1c-0.6,0-1.2-0.1-1.6-0.4c-1.1-0.5-1.6-1.5-1.4-2.5c0.3-1.6,0.6-2.9,0.9-4.4
					c0.3-1.5,0.7-3.2,1.2-5.7c0.1-0.5,0.4-0.9,0.8-1.4c0.3-0.4,0.7-0.9,1-1.6c0.1-0.1,0-0.3,0-0.4L19,31.5l0.2-0.1
					c0,0,0.5-0.4,1.6-1.2l1.4-0.9l-0.5,2.3c-0.6,0.9-1.2,2-0.9,2.2c1.4,1.2,2.3,3.4,2.5,5.6c0.1,1.9-0.2,4.8-2.7,7.7l0,0
					C19.9,47.8,19,48.1,18.1,48.1z M19.6,31.8c0,0.2,0,0.4-0.1,0.6c-0.3,0.8-0.8,1.3-1.1,1.7c-0.3,0.4-0.6,0.8-0.7,1.2
					c-0.5,2.5-0.9,4.2-1.2,5.7c-0.3,1.5-0.6,2.8-0.9,4.4c-0.2,0.8,0.2,1.5,1.1,1.9c1,0.5,2.5,0.5,3.4-0.6l0,0
					c2.4-2.7,2.7-5.4,2.6-7.2c-0.2-2.1-1.1-4.2-2.3-5.3c-0.8-0.6,0.4-2.3,0.8-2.9l0.2-0.8l-0.3,0.2C20.4,31.3,19.9,31.6,19.6,31.8z
					 M18.4,46.3c0,0-0.1,0-0.1,0c-0.5-0.1-0.9-0.3-1.2-0.6c-0.7-0.9-0.3-2.6,0-4.6l0.1-0.7c0.1-0.4,0.1-0.7,0.2-1
					c0.4-2.4,0.7-4.1,2.5-4c0.4,0,0.7,0.2,1,0.5c0.7,0.9,1,2.7,0.8,4.9C21.4,43.6,19.8,46.3,18.4,46.3z M17.9,40.5l-0.1,0.7
					c-0.4,1.8-0.7,3.4-0.1,4.2c0.2,0.2,0.4,0.4,0.8,0.4c0.8,0.1,2.5-2.2,2.8-5c0.2-2,0-3.7-0.7-4.5c-0.2-0.2-0.4-0.3-0.6-0.3
					c0,0,0,0-0.1,0c-1.2,0-1.4,1.2-1.8,3.6C18,39.8,17.9,40.1,17.9,40.5L17.9,40.5z"/>
			</g>
			<g>
				<path class="st1" d="M21.5,31.4L19,31.8c-0.1-0.1-0.5-2-0.3-2.2c3.9-5.2,14-16.6,14-16.6c0.2-0.3,0.4-0.4,0.5-0.3l0.2,0.2
					l0.3,0.2c0.1,0.1,0,0.3-0.2,0.6c0,0-2.7,4.8-7.4,11.5C24.1,28.1,22.3,30.2,21.5,31.4z"/>
				<path class="st0" d="M19,32.1L19,32.1c-0.3-0.2-0.5-1.3-0.5-1.6c-0.1-0.8-0.1-1,0-1.1c3.9-5.1,13.9-16.5,14-16.7
					c0.3-0.4,0.6-0.5,0.9-0.4l0.5,0.4c0.1,0.1,0.1,0.2,0.2,0.3c0,0.3-0.2,0.6-0.3,0.7c0,0-2.8,4.9-7.4,11.4
					c-1.3,2.1-2.6,3.7-3.5,4.9c-0.5,0.6-0.9,1.1-1.1,1.5l-0.1,0.1L19,32.1z M33.1,12.8c-0.1,0-0.1,0.1-0.2,0.2
					c-0.1,0.1-10.1,11.5-14,16.6c-0.1,0.2,0.2,1.3,0.3,1.8l2.2-0.3c0.3-0.4,0.6-0.9,1.1-1.4c0.9-1.2,2.1-2.8,3.5-4.9
					c4.7-6.6,7.4-11.4,7.4-11.4c0.1-0.1,0.1-0.2,0.2-0.3L33.1,12.8z M33.1,12.8C33.1,12.8,33.1,12.8,33.1,12.8L33.1,12.8z"/>
			</g>
			<g>
				<path class="st1" d="M20.3,30.4c0.2-0.2,0.5-0.8,0.5-1.1c-0.4-11.9-2-20.8-2-20.8c0-0.3-0.1-0.6-0.3-0.6L18,8
					c-0.1,0-0.2,0.3-0.2,0.6c0,0-0.5,15.1-0.2,21.5c0,0.3,1.4,1.7,1.5,1.7L20.3,30.4z"/>
				<path class="st0" d="M19.1,32c-0.1,0-0.2-0.1-0.5-0.3c0,0-1.3-1.2-1.3-1.7C17,23.7,17.5,8.7,17.5,8.5c0-0.3,0.1-0.6,0.2-0.7
					c0.1-0.1,0.2-0.1,0.3-0.1l0.6,0c0.3,0,0.5,0.3,0.5,0.8c0,0.1,1.6,9,2,20.8c0,0.4-0.4,1.1-0.6,1.3L19.2,32L19.1,32
					C19.1,32,19.1,32,19.1,32z M18.1,8.2c0,0.1,0,0.2,0,0.3c0,0.2-0.5,15.2-0.2,21.5c0.1,0.2,0.8,1,1.2,1.3l1.1-1.2
					c0.1-0.1,0.4-0.7,0.4-0.9c-0.4-11.8-1.9-20.7-1.9-20.8c0-0.2,0-0.3-0.1-0.3L18.1,8.2z"/>
			</g>
			<g>
				<path class="st0" d="M19.2,30.1c-0.1,0-0.1,0-0.2,0c-0.3-0.1-0.5-0.2-0.7-0.4c-0.1-0.2-0.2-0.5-0.1-0.8c0.1-0.5,0.7-0.9,1.2-0.8
					c0.3,0.1,0.5,0.2,0.7,0.4c0.1,0.2,0.2,0.5,0.1,0.8C20.1,29.8,19.7,30.1,19.2,30.1z M19.2,28.6c-0.2,0-0.4,0.2-0.5,0.4
					c0,0.1,0,0.2,0.1,0.3c0.1,0.1,0.2,0.2,0.3,0.2h0c0.3,0.1,0.5-0.1,0.6-0.4c0-0.1,0-0.2-0.1-0.3C19.6,28.7,19.4,28.7,19.2,28.6
					C19.3,28.6,19.3,28.6,19.2,28.6z"/>
			</g>
		</g>
	</g>
</g>
<g id="de" class="st2">
	<circle class="st3" cx="43.1" cy="35.9" r="13.7"/>
	<g class="st4">
		<rect x="31.9" y="30.7" class="st5" width="22.4" height="10.3"/>
		<path class="st6" d="M34.2,40.4h-1.1c-0.2,0-0.3-0.1-0.3-0.3v-8.2c0-0.2,0.1-0.3,0.3-0.3h1c0.2,0,0.3,0.1,0.4,0.2l2.8,5.2h0.1
			v-5.1c0-0.2,0.1-0.3,0.3-0.3h1.1c0.2,0,0.3,0.1,0.3,0.3v8.2c0,0.2-0.1,0.3-0.3,0.3h-1c-0.2,0-0.3-0.1-0.4-0.3L34.6,35h-0.1v5.1
			C34.5,40.3,34.4,40.4,34.2,40.4z"/>
		<path class="st6" d="M45.6,40.4h-4.5c-0.2,0-0.3-0.1-0.3-0.3v-8.2c0-0.2,0.1-0.3,0.3-0.3h4.5c0.2,0,0.3,0.1,0.3,0.3v0.9
			c0,0.2-0.1,0.3-0.3,0.3h-2.9c-0.1,0-0.2,0.1-0.2,0.2V35c0,0.1,0.1,0.2,0.2,0.2h2.3c0.2,0,0.3,0.1,0.3,0.3v0.9
			c0,0.2-0.1,0.3-0.3,0.3h-2.3c-0.1,0-0.2,0.1-0.2,0.2v1.9c0,0.1,0.1,0.2,0.2,0.2h2.9c0.2,0,0.3,0.1,0.3,0.3v0.9
			C45.9,40.3,45.8,40.4,45.6,40.4z"/>
		<path class="st6" d="M51.9,31.6h1.2c0.2,0,0.3,0.1,0.3,0.3v6.3c0,0.7-0.2,1.3-0.6,1.7c-0.4,0.4-1,0.6-1.7,0.6h-1.5
			c-0.7,0-1.3-0.2-1.7-0.6s-0.6-0.9-0.6-1.7v-6.3c0-0.2,0.1-0.3,0.3-0.3h1.2c0.2,0,0.3,0.1,0.3,0.3v6.2c0,0.3,0.1,0.5,0.2,0.6
			c0.1,0.1,0.3,0.2,0.6,0.2h0.9c0.3,0,0.5-0.1,0.6-0.2c0.1-0.1,0.2-0.3,0.2-0.6v-6.2C51.6,31.7,51.7,31.6,51.9,31.6z"/>
	</g>
</g>
<g id="fr" class="st2">
	<circle class="st3" cx="43.2" cy="38.2" r="11.4"/>
	<g class="st4">
		<rect x="34.3" y="36.4" class="st5" width="17.9" height="3.7"/>
		<path class="st6" d="M35.1,39.8h-0.4c-0.1,0-0.1,0-0.1-0.1v-2.9c0-0.1,0-0.1,0.1-0.1h0.4c0.1,0,0.1,0,0.1,0.1l1,1.9h0v-1.8
			c0-0.1,0-0.1,0.1-0.1h0.4c0.1,0,0.1,0,0.1,0.1v2.9c0,0.1,0,0.1-0.1,0.1h-0.4c-0.1,0-0.1,0-0.2-0.1l-1-1.8h0v1.8
			C35.2,39.8,35.2,39.8,35.1,39.8z"/>
		<path class="st6" d="M38.6,39.8h-0.5c-0.3,0-0.5-0.1-0.6-0.2c-0.1-0.1-0.2-0.3-0.2-0.6v-1.6c0-0.3,0.1-0.5,0.2-0.6
			c0.1-0.1,0.3-0.2,0.6-0.2h0.5c0.3,0,0.5,0.1,0.6,0.2c0.1,0.1,0.2,0.3,0.2,0.6V39c0,0.3-0.1,0.5-0.2,0.6
			C39.1,39.7,38.9,39.8,38.6,39.8z M38.2,39.3h0.3c0.1,0,0.2,0,0.2-0.1c0,0,0.1-0.1,0.1-0.2v-1.5c0-0.1,0-0.2-0.1-0.2
			c0,0-0.1-0.1-0.2-0.1h-0.3c-0.1,0-0.2,0-0.2,0.1c0,0-0.1,0.1-0.1,0.2V39c0,0.1,0,0.2,0.1,0.2C38,39.3,38.1,39.3,38.2,39.3z"/>
		<path class="st6" d="M41.5,36.7h0.4c0.1,0,0.1,0,0.1,0.1V39c0,0.3-0.1,0.5-0.2,0.6s-0.3,0.2-0.6,0.2h-0.5c-0.3,0-0.5-0.1-0.6-0.2
			c-0.1-0.1-0.2-0.3-0.2-0.6v-2.2c0-0.1,0-0.1,0.1-0.1h0.4c0.1,0,0.1,0,0.1,0.1V39c0,0.1,0,0.2,0.1,0.2c0,0,0.1,0.1,0.2,0.1h0.3
			c0.1,0,0.2,0,0.2-0.1c0,0,0.1-0.1,0.1-0.2v-2.2C41.4,36.7,41.4,36.7,41.5,36.7z"/>
		<path class="st6" d="M43.7,39.8h-0.6c-0.1,0-0.1,0-0.1-0.1l-0.8-2.9c0-0.1,0-0.1,0.1-0.1h0.5c0.1,0,0.1,0,0.1,0.1l0.5,2.4h0
			l0.5-2.4c0-0.1,0.1-0.1,0.1-0.1h0.5c0.1,0,0.1,0,0.1,0.1l-0.8,2.9C43.8,39.8,43.8,39.8,43.7,39.8z"/>
		<path class="st6" d="M46.6,39.8H45c-0.1,0-0.1,0-0.1-0.1v-2.9c0-0.1,0-0.1,0.1-0.1h1.6c0.1,0,0.1,0,0.1,0.1v0.3
			c0,0.1,0,0.1-0.1,0.1h-1c0,0-0.1,0-0.1,0.1v0.6c0,0,0,0.1,0.1,0.1h0.8c0.1,0,0.1,0,0.1,0.1v0.3c0,0.1,0,0.1-0.1,0.1h-0.8
			c0,0-0.1,0-0.1,0.1v0.7c0,0,0,0.1,0.1,0.1h1c0.1,0,0.1,0,0.1,0.1v0.3C46.7,39.8,46.6,39.8,46.6,39.8z"/>
		<path class="st6" d="M47.4,39.8h-0.5c-0.1,0-0.1,0-0.1-0.1l0.8-2.9c0-0.1,0.1-0.1,0.1-0.1h0.7c0.1,0,0.1,0,0.1,0.1l0.8,2.9
			c0,0.1,0,0.1-0.1,0.1h-0.5c0,0-0.1,0-0.1,0s0,0,0-0.1l-0.1-0.5h-1l-0.1,0.5C47.5,39.7,47.5,39.8,47.4,39.8
			C47.4,39.8,47.4,39.8,47.4,39.8z M48.1,37.3l-0.4,1.4h0.7L48.1,37.3L48.1,37.3z"/>
		<path class="st6" d="M51.2,36.7h0.4c0.1,0,0.1,0,0.1,0.1V39c0,0.3-0.1,0.5-0.2,0.6s-0.3,0.2-0.6,0.2h-0.5c-0.3,0-0.5-0.1-0.6-0.2
			c-0.1-0.1-0.2-0.3-0.2-0.6v-2.2c0-0.1,0-0.1,0.1-0.1h0.4c0.1,0,0.1,0,0.1,0.1V39c0,0.1,0,0.2,0.1,0.2c0,0,0.1,0.1,0.2,0.1h0.3
			c0.1,0,0.2,0,0.2-0.1c0,0,0.1-0.1,0.1-0.2v-2.2C51.1,36.7,51.2,36.7,51.2,36.7z"/>
	</g>
</g>
<g id="uk" class="st2">
	<circle class="st3" cx="43" cy="35.9" r="13.7"/>
	<g class="st4">
		<rect x="31.8" y="31.5" class="st5" width="22.4" height="8.7"/>
		<path class="st6" d="M33.8,39.8h-1c-0.2,0-0.2-0.1-0.2-0.2v-7.1c0-0.2,0.1-0.2,0.2-0.2h0.9c0.2,0,0.3,0.1,0.3,0.2l2.4,4.5h0v-4.4
			c0-0.2,0.1-0.2,0.2-0.2h1c0.2,0,0.2,0.1,0.2,0.2v7.1c0,0.2-0.1,0.2-0.2,0.2h-0.9c-0.2,0-0.3-0.1-0.4-0.2l-2.3-4.4h0v4.4
			C34,39.7,33.9,39.8,33.8,39.8z"/>
		<path class="st6" d="M43.5,39.8h-3.8c-0.2,0-0.2-0.1-0.2-0.2v-7.1c0-0.2,0.1-0.2,0.2-0.2h3.8c0.2,0,0.2,0.1,0.2,0.2v0.8
			c0,0.2-0.1,0.2-0.2,0.2h-2.5c-0.1,0-0.1,0-0.1,0.1v1.5c0,0.1,0,0.1,0.1,0.1h2c0.2,0,0.2,0.1,0.2,0.2v0.8c0,0.2-0.1,0.2-0.2,0.2h-2
			c-0.1,0-0.1,0-0.1,0.1v1.6c0,0.1,0,0.1,0.1,0.1h2.5c0.2,0,0.2,0.1,0.2,0.2v0.8C43.8,39.7,43.7,39.8,43.5,39.8z"/>
		<path class="st6" d="M47.7,39.8H46c-0.2,0-0.3-0.1-0.3-0.2l-1.3-7.1c0-0.2,0.1-0.2,0.2-0.2h1.2c0.2,0,0.3,0.1,0.3,0.2l0.7,5.8H47
			l1.1-5.8c0-0.1,0.1-0.2,0.2-0.2h1.3c0.1,0,0.2,0.1,0.3,0.2l1.2,5.8h0.1l0.7-5.8c0-0.2,0.1-0.3,0.3-0.3h1.2c0.2,0,0.3,0.1,0.2,0.3
			l-1.3,7c0,0.2-0.1,0.2-0.3,0.2h-1.7c-0.2,0-0.3-0.1-0.3-0.2L49.1,34h0l-1.1,5.5C47.9,39.7,47.8,39.8,47.7,39.8z"/>
	</g>
</g>
<g id="it" class="st2">
	<circle class="st3" cx="43.2" cy="38.3" r="11.4"/>
	<g class="st4">
		<rect x="33.9" y="35.9" class="st5" width="18.7" height="4.7"/>
		<path class="st6" d="M35,40.5h-0.5c-0.1,0-0.1,0-0.1-0.1v-3.9c0-0.1,0-0.1,0.1-0.1h0.5c0.1,0,0.2,0,0.2,0.1l1.3,2.5h0v-2.4
			c0-0.1,0-0.1,0.1-0.1h0.5c0.1,0,0.1,0,0.1,0.1v3.9c0,0.1,0,0.1-0.1,0.1h-0.5c-0.1,0-0.2,0-0.2-0.1l-1.3-2.4h0v2.4
			C35.1,40.5,35.1,40.5,35,40.5z"/>
		<path class="st6" d="M39.8,40.5H39c-0.3,0-0.6-0.1-0.8-0.3C38.1,40,38,39.8,38,39.4v-2.1c0-0.3,0.1-0.6,0.3-0.8
			c0.2-0.2,0.5-0.3,0.8-0.3h0.7c0.3,0,0.6,0.1,0.8,0.3c0.2,0.2,0.3,0.4,0.3,0.8v2.1c0,0.3-0.1,0.6-0.3,0.8
			C40.4,40.4,40.1,40.5,39.8,40.5z M39.2,39.8h0.5c0.1,0,0.2,0,0.3-0.1s0.1-0.2,0.1-0.3v-2c0-0.1,0-0.2-0.1-0.3S39.8,37,39.6,37
			h-0.5c-0.1,0-0.2,0-0.3,0.1s-0.1,0.2-0.1,0.3v2c0,0.1,0,0.2,0.1,0.3S39,39.8,39.2,39.8z"/>
		<path class="st6" d="M43.3,40.5h-0.9c-0.1,0-0.1,0-0.2-0.1l-1-3.9c0-0.1,0-0.1,0.1-0.1H42c0.1,0,0.1,0,0.2,0.1l0.7,3.2h0l0.7-3.2
			c0-0.1,0.1-0.1,0.2-0.1h0.6c0.1,0,0.2,0,0.1,0.1l-1,3.9C43.4,40.5,43.3,40.5,43.3,40.5z"/>
		<path class="st6" d="M45.7,36.4v3.9c0,0.1,0,0.1-0.1,0.1H45c-0.1,0-0.1,0-0.1-0.1v-3.9c0-0.1,0-0.1,0.1-0.1h0.6
			C45.7,36.3,45.7,36.4,45.7,36.4z"/>
		<path class="st6" d="M47.8,40.5h-0.5c-0.1,0-0.1,0-0.1-0.1v-3.3c0,0,0-0.1-0.1-0.1h-0.7c-0.1,0-0.1,0-0.1-0.1v-0.4
			c0-0.1,0-0.1,0.1-0.1h2.5c0.1,0,0.1,0,0.1,0.1v0.4c0,0.1,0,0.1-0.1,0.1H48c-0.1,0-0.1,0-0.1,0.1v3.3C48,40.5,47.9,40.5,47.8,40.5z
			"/>
		<path class="st6" d="M49.8,40.5h-0.6c-0.1,0-0.1,0-0.1-0.1l1-3.9c0-0.1,0.1-0.1,0.2-0.1h0.9c0.1,0,0.2,0,0.2,0.1l1,3.9
			c0,0.1,0,0.1-0.1,0.1h-0.6c0,0-0.1,0-0.1,0c0,0,0-0.1,0-0.1l-0.2-0.7h-1.3l-0.2,0.7C49.9,40.4,49.9,40.5,49.8,40.5
			C49.9,40.5,49.8,40.5,49.8,40.5z M50.9,35.9h-0.4c-0.1,0-0.1,0-0.2-0.1l-0.5-0.6c0,0,0-0.1,0-0.1c0,0,0,0,0.1,0h0.6
			c0.1,0,0.2,0,0.2,0.1l0.3,0.6C51,35.8,51,35.9,50.9,35.9z M50.7,37.1L50.3,39h1L50.7,37.1L50.7,37.1z"/>
	</g>
</g>
<g id="es" class="st2">
	<circle class="st3" cx="43.2" cy="38.2" r="11.4"/>
	<g class="st4">
		<rect x="33.4" y="36.4" class="st5" width="19.7" height="3.7"/>
		<path class="st6" d="M34.2,39.4h-0.4c-0.1,0-0.1,0-0.1-0.1v-2.6c0-0.1,0-0.1,0.1-0.1h0.3c0.1,0,0.1,0,0.1,0.1l0.9,1.6h0v-1.6
			c0-0.1,0-0.1,0.1-0.1h0.4c0.1,0,0.1,0,0.1,0.1v2.6c0,0.1,0,0.1-0.1,0.1h-0.3c-0.1,0-0.1,0-0.1-0.1l-0.9-1.6h0L34.2,39.4
			C34.2,39.4,34.2,39.4,34.2,39.4z"/>
		<path class="st6" d="M37.3,39.4h-0.5c-0.2,0-0.4-0.1-0.5-0.2C36.1,39.1,36,39,36,38.7v-1.4c0-0.2,0.1-0.4,0.2-0.5
			c0.1-0.1,0.3-0.2,0.5-0.2h0.5c0.2,0,0.4,0.1,0.5,0.2c0.1,0.1,0.2,0.3,0.2,0.5v1.4c0,0.2-0.1,0.4-0.2,0.5
			C37.7,39.4,37.5,39.4,37.3,39.4z M36.9,39h0.3c0.1,0,0.2,0,0.2-0.1s0.1-0.1,0.1-0.2v-1.3c0-0.1,0-0.2-0.1-0.2c0,0-0.1-0.1-0.2-0.1
			h-0.3c-0.1,0-0.2,0-0.2,0.1c0,0-0.1,0.1-0.1,0.2v1.3c0,0.1,0,0.2,0.1,0.2S36.8,39,36.9,39z"/>
		<path class="st6" d="M39.5,39.4h-0.6c-0.1,0-0.1,0-0.1-0.1l-0.7-2.6c0-0.1,0-0.1,0.1-0.1h0.4c0.1,0,0.1,0,0.1,0.1l0.5,2.1h0
			l0.5-2.1c0-0.1,0-0.1,0.1-0.1h0.4c0.1,0,0.1,0,0.1,0.1l-0.7,2.6C39.6,39.4,39.5,39.4,39.5,39.4z"/>
		<path class="st6" d="M42,39.4h-1.4c-0.1,0-0.1,0-0.1-0.1v-2.6c0-0.1,0-0.1,0.1-0.1H42c0.1,0,0.1,0,0.1,0.1V37c0,0.1,0,0.1-0.1,0.1
			H41c0,0-0.1,0-0.1,0v0.6c0,0,0,0,0.1,0h0.7c0.1,0,0.1,0,0.1,0.1v0.3c0,0.1,0,0.1-0.1,0.1H41c0,0-0.1,0-0.1,0v0.6c0,0,0,0,0.1,0H42
			C42,39,42,39,42,39L42,39.4C42,39.4,42,39.4,42,39.4z"/>
		<path class="st6" d="M42.4,39.3v-2.6c0-0.1,0-0.1,0.1-0.1h1.1c0.2,0,0.4,0.1,0.5,0.2s0.2,0.3,0.2,0.5v1.4c0,0.2-0.1,0.4-0.2,0.5
			s-0.3,0.2-0.5,0.2L42.4,39.3C42.4,39.4,42.4,39.4,42.4,39.3z M43,39h0.5c0.1,0,0.2,0,0.2-0.1s0.1-0.1,0.1-0.2v-1.3
			c0-0.1,0-0.2-0.1-0.2c0,0-0.1-0.1-0.2-0.1H43c0,0,0,0,0,0L43,39C42.9,38.9,42.9,39,43,39z"/>
		<path class="st6" d="M44.9,39.4h-0.4c-0.1,0-0.1,0-0.1-0.1l0.7-2.6c0-0.1,0.1-0.1,0.1-0.1h0.6c0.1,0,0.1,0,0.1,0.1l0.7,2.6
			c0,0.1,0,0.1-0.1,0.1h-0.4c0,0-0.1,0-0.1,0s0,0,0-0.1L46,38.9h-0.8L44.9,39.4C45,39.4,45,39.4,44.9,39.4
			C45,39.4,44.9,39.4,44.9,39.4z M45.5,37.2l-0.3,1.3h0.6L45.5,37.2L45.5,37.2z"/>
		<path class="st6" d="M46.9,39.3v-2.6c0-0.1,0-0.1,0.1-0.1H48c0.2,0,0.4,0.1,0.5,0.2s0.2,0.3,0.2,0.5v1.4c0,0.2-0.1,0.4-0.2,0.5
			s-0.3,0.2-0.5,0.2L46.9,39.3C46.9,39.4,46.9,39.4,46.9,39.3z M47.5,39H48c0.1,0,0.2,0,0.2-0.1s0.1-0.1,0.1-0.2v-1.3
			c0-0.1,0-0.2-0.1-0.2c0,0-0.1-0.1-0.2-0.1h-0.5c0,0,0,0,0,0L47.5,39C47.4,38.9,47.5,39,47.5,39z"/>
		<path class="st6" d="M50.6,39.4h-1.4c-0.1,0-0.1,0-0.1-0.1v-2.6c0-0.1,0-0.1,0.1-0.1h1.4c0.1,0,0.1,0,0.1,0.1V37
			c0,0.1,0,0.1-0.1,0.1h-0.9c0,0-0.1,0-0.1,0v0.6c0,0,0,0,0.1,0h0.7c0.1,0,0.1,0,0.1,0.1v0.3c0,0.1,0,0.1-0.1,0.1h-0.7
			c0,0-0.1,0-0.1,0v0.6c0,0,0,0,0.1,0h0.9c0.1,0,0.1,0,0.1,0.1L50.6,39.4C50.7,39.4,50.7,39.4,50.6,39.4z"/>
		<path class="st6" d="M51,38.7L51,38.7c0-0.1,0-0.2,0.1-0.2h0.4c0.1,0,0.1,0,0.1,0.1v0c0,0.1,0,0.2,0.1,0.2c0,0,0.1,0.1,0.2,0.1H52
			c0.1,0,0.2,0,0.2-0.1c0,0,0.1-0.1,0.1-0.2v-0.1c0-0.1,0-0.1-0.1-0.2s-0.2-0.1-0.3-0.1c-0.1,0-0.2,0-0.3,0c-0.1,0-0.2-0.1-0.3-0.1
			s-0.2-0.1-0.3-0.2C51,37.8,51,37.7,51,37.5v-0.2c0-0.2,0.1-0.4,0.2-0.5c0.1-0.1,0.3-0.2,0.5-0.2h0.4c0.2,0,0.4,0.1,0.5,0.2
			c0.1,0.1,0.2,0.3,0.2,0.5v0.1c0,0.1,0,0.1-0.1,0.1h-0.4c-0.1,0-0.1,0-0.1-0.1v0c0-0.1,0-0.2-0.1-0.2c0,0-0.1-0.1-0.2-0.1h-0.2
			c-0.1,0-0.2,0-0.2,0.1c0,0-0.1,0.1-0.1,0.3v0.1c0,0.1,0.1,0.2,0.4,0.2c0.2,0,0.5,0.1,0.7,0.1c0.1,0,0.2,0.1,0.3,0.2
			c0.1,0.1,0.1,0.3,0.1,0.4v0.1c0,0.2-0.1,0.4-0.2,0.5c-0.1,0.1-0.3,0.2-0.5,0.2h-0.5c-0.2,0-0.4-0.1-0.5-0.2
			C51,39.1,51,38.9,51,38.7z"/>
	</g>
</g>
<g id="se" class="st2">
	<circle class="st3" cx="43.2" cy="38.3" r="11.4"/>
	<g class="st4">
		<rect x="33.4" y="35.6" class="st5" width="19.7" height="5.4"/>
		<path class="st6" d="M34.7,40.9h-0.6c-0.1,0-0.2-0.1-0.2-0.2v-4.6c0-0.1,0.1-0.2,0.2-0.2h0.6c0.1,0,0.2,0,0.2,0.1l1.5,2.9h0v-2.8
			c0-0.1,0.1-0.2,0.2-0.2h0.6c0.1,0,0.2,0.1,0.2,0.2v4.6c0,0.1-0.1,0.2-0.2,0.2h-0.6c-0.1,0-0.2-0.1-0.2-0.2l-1.5-2.8h0v2.8
			C34.8,40.9,34.8,40.9,34.7,40.9z"/>
		<path class="st6" d="M40.1,40.9h-0.6c-0.1,0-0.2-0.1-0.2-0.2v-1.6l-1.4-2.9c0,0,0-0.1,0-0.1c0,0,0.1,0,0.1,0h0.8
			c0.1,0,0.1,0.1,0.2,0.2l0.8,1.8h0.1l0.7-1.8c0-0.1,0.1-0.2,0.2-0.2h0.8c0.1,0,0.1,0,0.1,0c0,0,0,0.1,0,0.1l-1.4,2.9v1.6
			C40.3,40.9,40.2,40.9,40.1,40.9z"/>
		<path class="st6" d="M43,40.9h-0.6c-0.1,0-0.2-0.1-0.2-0.2v-4.6c0-0.1,0.1-0.2,0.2-0.2H43c0.1,0,0.2,0.1,0.2,0.2V38
			c0,0.1,0,0.1,0.1,0.1h1.3c0.1,0,0.1,0,0.1-0.1v-1.8c0-0.1,0.1-0.2,0.2-0.2h0.6c0.1,0,0.2,0.1,0.2,0.2v4.6c0,0.1-0.1,0.2-0.2,0.2
			h-0.6c-0.1,0-0.2-0.1-0.2-0.2V39c0-0.1,0-0.1-0.1-0.1h-1.3c-0.1,0-0.1,0-0.1,0.1v1.8C43.2,40.9,43.1,40.9,43,40.9z"/>
		<path class="st6" d="M49.2,40.9h-2.5c-0.1,0-0.2-0.1-0.2-0.2v-4.6c0-0.1,0.1-0.2,0.2-0.2h2.5c0.1,0,0.2,0.1,0.2,0.2v0.5
			c0,0.1-0.1,0.2-0.2,0.2h-1.6c-0.1,0-0.1,0-0.1,0.1v1c0,0.1,0,0.1,0.1,0.1h1.3c0.1,0,0.2,0.1,0.2,0.2v0.5c0,0.1-0.1,0.2-0.2,0.2
			h-1.3c-0.1,0-0.1,0-0.1,0.1V40c0,0.1,0,0.1,0.1,0.1h1.6c0.1,0,0.2,0.1,0.2,0.2v0.5C49.4,40.9,49.3,40.9,49.2,40.9z"/>
		<path class="st6" d="M51.7,40.9h-0.6c-0.1,0-0.2-0.1-0.2-0.2v-3.8c0-0.1,0-0.1-0.1-0.1h-0.9c-0.1,0-0.2-0.1-0.2-0.2v-0.5
			c0-0.1,0.1-0.2,0.2-0.2h2.9c0.1,0,0.2,0.1,0.2,0.2v0.5c0,0.1-0.1,0.2-0.2,0.2h-0.9c-0.1,0-0.1,0-0.1,0.1v3.8
			C51.9,40.9,51.8,40.9,51.7,40.9z"/>
	</g>
</g>
<g id="nl" class="st2">
	<circle class="st3" cx="43.2" cy="38.3" r="11.4"/>
	<g class="st4">
		<rect x="33.4" y="35.7" class="st5" width="19.7" height="5.2"/>
		<path class="st6" d="M34.6,40.6H34c-0.1,0-0.1,0-0.1-0.1v-4.2c0-0.1,0-0.1,0.1-0.1h0.5c0.1,0,0.2,0,0.2,0.1l1.4,2.7h0v-2.6
			c0-0.1,0-0.1,0.1-0.1h0.6c0.1,0,0.1,0,0.1,0.1v4.2c0,0.1,0,0.1-0.1,0.1h-0.5c-0.1,0-0.2,0-0.2-0.1l-1.4-2.6h0v2.6
			C34.7,40.6,34.7,40.6,34.6,40.6z"/>
		<path class="st6" d="M39,36.2v4.2c0,0.1,0,0.1-0.1,0.1h-0.6c-0.1,0-0.1,0-0.1-0.1v-4.2c0-0.1,0-0.1,0.1-0.1h0.6
			C39,36.1,39,36.1,39,36.2z"/>
		<path class="st6" d="M42.5,40.6h-2.3c-0.1,0-0.1,0-0.1-0.1v-4.2c0-0.1,0-0.1,0.1-0.1h2.3c0.1,0,0.1,0,0.1,0.1v0.5
			c0,0.1,0,0.1-0.1,0.1H41c-0.1,0-0.1,0-0.1,0.1v0.9c0,0.1,0,0.1,0.1,0.1h1.2c0.1,0,0.1,0,0.1,0.1v0.5c0,0.1,0,0.1-0.1,0.1H41
			c-0.1,0-0.1,0-0.1,0.1v1c0,0.1,0,0.1,0.1,0.1h1.5c0.1,0,0.1,0,0.1,0.1v0.5C42.6,40.6,42.6,40.6,42.5,40.6z"/>
		<path class="st6" d="M45.8,36.1h0.6c0.1,0,0.2,0,0.2,0.1v3.2c0,0.4-0.1,0.7-0.3,0.9s-0.5,0.3-0.9,0.3h-0.8c-0.4,0-0.7-0.1-0.9-0.3
			c-0.2-0.2-0.3-0.5-0.3-0.9v-3.2c0-0.1,0-0.1,0.1-0.1h0.6c0.1,0,0.1,0,0.1,0.1v3.2c0,0.2,0,0.3,0.1,0.3s0.2,0.1,0.3,0.1h0.5
			c0.2,0,0.3,0,0.3-0.1c0.1-0.1,0.1-0.2,0.1-0.3v-3.2C45.7,36.1,45.7,36.1,45.8,36.1z"/>
		<path class="st6" d="M49.1,40.6h-1c-0.1,0-0.2,0-0.2-0.1l-0.8-4.2c0-0.1,0-0.1,0.1-0.1H48c0.1,0,0.2,0,0.2,0.1l0.4,3.5h0l0.7-3.5
			c0-0.1,0.1-0.1,0.1-0.1h0.8c0.1,0,0.1,0,0.2,0.1l0.7,3.5h0.1l0.4-3.5c0-0.1,0.1-0.2,0.2-0.2h0.7c0.1,0,0.2,0.1,0.1,0.2l-0.8,4.2
			c0,0.1-0.1,0.1-0.2,0.1h-1c-0.1,0-0.2,0-0.2-0.1l-0.6-3.3h0l-0.6,3.3C49.2,40.6,49.2,40.6,49.1,40.6z"/>
	</g>
</g>
<g id="pt" class="st2">
	<circle class="st3" cx="43.2" cy="38.3" r="11.4"/>
	<g class="st4">
		<rect x="33.4" y="36.6" class="st5" width="19.7" height="3.5"/>
		<path class="st6" d="M34.2,40h-0.4c-0.1,0-0.1,0-0.1-0.1V37c0-0.1,0-0.1,0.1-0.1h0.4c0.1,0,0.1,0,0.1,0.1l1,1.9h0V37
			c0-0.1,0-0.1,0.1-0.1h0.4c0.1,0,0.1,0,0.1,0.1v2.9c0,0.1,0,0.1-0.1,0.1h-0.4c-0.1,0-0.1,0-0.2-0.1l-1-1.8h0v1.8
			C34.3,40,34.3,40,34.2,40z"/>
		<path class="st6" d="M37.9,40h-0.5c-0.3,0-0.5-0.1-0.6-0.2c-0.1-0.1-0.2-0.3-0.2-0.6v-1.6c0-0.3,0.1-0.5,0.2-0.6
			c0.1-0.1,0.3-0.2,0.6-0.2h0.5c0.3,0,0.5,0.1,0.6,0.2c0.1,0.1,0.2,0.3,0.2,0.6v1.6c0,0.3-0.1,0.5-0.2,0.6C38.3,40,38.1,40,37.9,40z
			 M37.4,39.5h0.3c0.1,0,0.2,0,0.2-0.1c0,0,0.1-0.1,0.1-0.2v-1.5c0-0.1,0-0.2-0.1-0.2c0,0-0.1-0.1-0.2-0.1h-0.3
			c-0.1,0-0.2,0-0.2,0.1c0,0-0.1,0.1-0.1,0.2v1.5c0,0.1,0,0.2,0.1,0.2C37.2,39.5,37.3,39.5,37.4,39.5z"/>
		<path class="st6" d="M40.5,40h-0.6c-0.1,0-0.1,0-0.1-0.1L39,37c0-0.1,0-0.1,0.1-0.1h0.5c0.1,0,0.1,0,0.1,0.1l0.5,2.4h0l0.5-2.4
			c0-0.1,0.1-0.1,0.1-0.1h0.5c0.1,0,0.1,0,0.1,0.1l-0.8,2.9C40.6,40,40.6,40,40.5,40z"/>
		<path class="st6" d="M42.4,37v2.9c0,0.1,0,0.1-0.1,0.1h-0.4c-0.1,0-0.1,0-0.1-0.1V37c0-0.1,0-0.1,0.1-0.1h0.4
			C42.3,36.9,42.4,36.9,42.4,37z"/>
		<path class="st6" d="M43,39.9V37c0-0.1,0-0.1,0.1-0.1h1.2c0.3,0,0.5,0.1,0.6,0.2s0.2,0.3,0.2,0.6v1.6c0,0.3-0.1,0.5-0.2,0.6
			S44.6,40,44.3,40h-1.2C43,40,43,40,43,39.9z M43.7,39.5h0.5c0.1,0,0.2,0,0.2-0.1c0,0,0.1-0.1,0.1-0.2v-1.5c0-0.1,0-0.2-0.1-0.2
			c0,0-0.1-0.1-0.2-0.1h-0.5c0,0-0.1,0-0.1,0.1L43.7,39.5C43.6,39.5,43.6,39.5,43.7,39.5z"/>
		<path class="st6" d="M46,40h-0.5c-0.1,0-0.1,0-0.1-0.1l0.8-2.9c0-0.1,0.1-0.1,0.1-0.1H47c0.1,0,0.1,0,0.1,0.1l0.8,2.9
			c0,0.1,0,0.1-0.1,0.1h-0.5c0,0-0.1,0-0.1,0s0,0,0-0.1l-0.1-0.5h-1l-0.1,0.5C46.1,40,46.1,40,46,40C46.1,40,46,40,46,40z
			 M46.7,37.5l-0.4,1.4h0.7L46.7,37.5L46.7,37.5z"/>
		<path class="st6" d="M48.4,39.9V37c0-0.1,0-0.1,0.1-0.1h1.2c0.3,0,0.5,0.1,0.6,0.2s0.2,0.3,0.2,0.6v1.6c0,0.3-0.1,0.5-0.2,0.6
			S49.9,40,49.7,40h-1.2C48.4,40,48.4,40,48.4,39.9z M49,39.5h0.5c0.1,0,0.2,0,0.2-0.1c0,0,0.1-0.1,0.1-0.2v-1.5
			c0-0.1,0-0.2-0.1-0.2c0,0-0.1-0.1-0.2-0.1H49c0,0-0.1,0-0.1,0.1L49,39.5C49,39.5,49,39.5,49,39.5z"/>
		<path class="st6" d="M52.7,40h-1.6c-0.1,0-0.1,0-0.1-0.1V37c0-0.1,0-0.1,0.1-0.1h1.6c0.1,0,0.1,0,0.1,0.1v0.3c0,0.1,0,0.1-0.1,0.1
			h-1c0,0-0.1,0-0.1,0.1v0.6c0,0,0,0.1,0.1,0.1h0.8c0.1,0,0.1,0,0.1,0.1v0.3c0,0.1,0,0.1-0.1,0.1h-0.8c0,0-0.1,0-0.1,0.1v0.7
			c0,0,0,0.1,0.1,0.1h1c0.1,0,0.1,0,0.1,0.1v0.3C52.8,40,52.8,40,52.7,40z"/>
	</g>
</g>
<g id="pl" class="st2">
	<circle class="st3" cx="43.2" cy="38.4" r="11.4"/>
	<g class="st4">
		<rect x="33.4" y="36.3" class="st5" width="19.7" height="4.2"/>
		<path class="st6" d="M34.3,40.1h-0.5c-0.1,0-0.1,0-0.1-0.1v-3.3c0-0.1,0-0.1,0.1-0.1h0.4c0.1,0,0.1,0,0.2,0.1l1.1,2.1h0v-2
			c0-0.1,0-0.1,0.1-0.1h0.5c0.1,0,0.1,0,0.1,0.1V40c0,0.1,0,0.1-0.1,0.1h-0.4c-0.1,0-0.1,0-0.2-0.1l-1.1-2h0v2
			C34.4,40.1,34.4,40.1,34.3,40.1z"/>
		<path class="st6" d="M38.4,40.1h-0.6c-0.3,0-0.5-0.1-0.7-0.2c-0.2-0.2-0.2-0.4-0.2-0.7v-1.7c0-0.3,0.1-0.5,0.2-0.7
			c0.2-0.2,0.4-0.2,0.7-0.2h0.6c0.3,0,0.5,0.1,0.7,0.2c0.2,0.2,0.2,0.4,0.2,0.7v1.7c0,0.3-0.1,0.5-0.2,0.7
			C38.9,40,38.7,40.1,38.4,40.1z M37.9,39.5h0.4c0.1,0,0.2,0,0.2-0.1s0.1-0.1,0.1-0.2v-1.7c0-0.1,0-0.2-0.1-0.2s-0.1-0.1-0.2-0.1
			h-0.4c-0.1,0-0.2,0-0.2,0.1s-0.1,0.1-0.1,0.2v1.7c0,0.1,0,0.2,0.1,0.2S37.8,39.5,37.9,39.5z"/>
		<path class="st6" d="M41.1,40.1h-0.8c-0.1,0-0.1,0-0.1-0.1l-0.6-3.3c0-0.1,0-0.1,0.1-0.1h0.6c0.1,0,0.1,0,0.1,0.1l0.3,2.7h0
			l0.5-2.7c0-0.1,0-0.1,0.1-0.1h0.6c0.1,0,0.1,0,0.1,0.1l0.5,2.7h0l0.3-2.7c0-0.1,0-0.1,0.1-0.1h0.6c0.1,0,0.1,0,0.1,0.1L43.3,40
			c0,0.1-0.1,0.1-0.1,0.1h-0.8c-0.1,0-0.1,0-0.1-0.1l-0.5-2.5h0L41.3,40C41.3,40.1,41.2,40.1,41.1,40.1z"/>
		<path class="st6" d="M45.8,40.1h-0.6c-0.3,0-0.5-0.1-0.7-0.2c-0.2-0.2-0.2-0.4-0.2-0.7v-1.7c0-0.3,0.1-0.5,0.2-0.7
			c0.2-0.2,0.4-0.2,0.7-0.2h0.6c0.3,0,0.5,0.1,0.7,0.2c0.2,0.2,0.2,0.4,0.2,0.7v1.7c0,0.3-0.1,0.5-0.2,0.7
			C46.3,40,46.1,40.1,45.8,40.1z M45.3,39.5h0.4c0.1,0,0.2,0,0.2-0.1s0.1-0.1,0.1-0.2v-1.7c0-0.1,0-0.2-0.1-0.2s-0.1-0.1-0.2-0.1
			h-0.4c-0.1,0-0.2,0-0.2,0.1S45,37.4,45,37.5v1.7c0,0.1,0,0.2,0.1,0.2S45.2,39.5,45.3,39.5z"/>
		<path class="st6" d="M47.2,39.2v-0.1c0-0.1,0-0.1,0.1-0.1h0.5c0.1,0,0.1,0,0.1,0.1v0c0,0.1,0,0.2,0.1,0.3c0.1,0.1,0.2,0.1,0.3,0.1
			h0.3c0.1,0,0.2,0,0.3-0.1c0.1-0.1,0.1-0.2,0.1-0.3v-0.1c0-0.1,0-0.2-0.1-0.2c-0.1-0.1-0.2-0.1-0.3-0.1c-0.1,0-0.3,0-0.4-0.1
			c-0.1,0-0.3-0.1-0.4-0.1s-0.2-0.1-0.3-0.3c-0.1-0.1-0.1-0.3-0.1-0.6v-0.2c0-0.3,0.1-0.5,0.2-0.7c0.2-0.2,0.4-0.2,0.7-0.2h0.5
			c0.3,0,0.5,0.1,0.7,0.2c0.2,0.2,0.2,0.4,0.2,0.7v0.1c0,0.1,0,0.1-0.1,0.1H49c-0.1,0-0.1,0-0.1-0.1v0c0-0.1,0-0.2-0.1-0.3
			c-0.1-0.1-0.2-0.1-0.3-0.1h-0.2c-0.1,0-0.2,0-0.3,0.1c-0.1,0.1-0.1,0.2-0.1,0.3v0.1c0,0.2,0.1,0.3,0.4,0.3c0.3,0,0.6,0.1,0.8,0.2
			c0.1,0.1,0.2,0.2,0.3,0.3c0.1,0.1,0.1,0.3,0.1,0.5v0.2c0,0.3-0.1,0.5-0.2,0.7c-0.2,0.2-0.4,0.2-0.7,0.2h-0.6
			c-0.3,0-0.5-0.1-0.7-0.2C47.3,39.7,47.2,39.5,47.2,39.2z M48.5,35.6H49c0,0,0.1,0,0.1,0c0,0,0,0,0,0.1l-0.4,0.5
			c0,0-0.1,0.1-0.1,0.1h-0.4c-0.1,0-0.1,0-0.1-0.1l0.2-0.5C48.4,35.6,48.4,35.6,48.5,35.6z"/>
		<path class="st6" d="M51.7,40.1h-0.6c-0.3,0-0.5-0.1-0.7-0.2c-0.2-0.2-0.2-0.4-0.2-0.7v-1.7c0-0.3,0.1-0.5,0.2-0.7
			c0.2-0.2,0.4-0.2,0.7-0.2h0.6c0.3,0,0.5,0.1,0.7,0.2c0.2,0.2,0.2,0.4,0.2,0.7v0.3c0,0.1,0,0.1-0.1,0.1H52c-0.1,0-0.1,0-0.1-0.1
			v-0.2c0-0.1,0-0.2-0.1-0.2s-0.1-0.1-0.2-0.1h-0.4c-0.1,0-0.2,0-0.2,0.1s-0.1,0.1-0.1,0.2v1.7c0,0.1,0,0.2,0.1,0.2s0.1,0.1,0.2,0.1
			h0.4c0.1,0,0.2,0,0.2-0.1s0.1-0.1,0.1-0.2V39c0-0.1,0-0.1,0.1-0.1h0.5c0.1,0,0.1,0,0.1,0.1v0.3c0,0.3-0.1,0.5-0.2,0.7
			C52.2,40,52,40.1,51.7,40.1z M51.5,35.6H52c0,0,0.1,0,0.1,0c0,0,0,0,0,0.1l-0.4,0.5c0,0-0.1,0.1-0.1,0.1h-0.4
			c-0.1,0-0.1,0-0.1-0.1l0.2-0.5C51.3,35.6,51.4,35.6,51.5,35.6z"/>
	</g>
</g>
<g id="fi" class="st2">
	<circle class="st3" cx="43.2" cy="38.4" r="11.4"/>
	<g class="st4">
		<rect x="33.4" y="35.5" class="st5" width="19.7" height="5.6"/>
		<path class="st6" d="M36.4,36H37c0.1,0,0.2,0.1,0.2,0.2v3.5c0,0.4-0.1,0.7-0.3,0.9s-0.5,0.3-0.9,0.3h-0.8c-0.4,0-0.7-0.1-0.9-0.3
			c-0.2-0.2-0.3-0.5-0.3-0.9v-3.5c0-0.1,0.1-0.2,0.2-0.2h0.6c0.1,0,0.2,0.1,0.2,0.2v3.4c0,0.2,0,0.3,0.1,0.3s0.2,0.1,0.3,0.1h0.5
			c0.2,0,0.3,0,0.3-0.1c0.1-0.1,0.1-0.2,0.1-0.3v-3.4C36.2,36.1,36.3,36,36.4,36z"/>
		<path class="st6" d="M40.7,36h0.6c0.1,0,0.2,0.1,0.2,0.2v3.5c0,0.4-0.1,0.7-0.3,0.9s-0.5,0.3-0.9,0.3h-0.8c-0.4,0-0.7-0.1-0.9-0.3
			c-0.2-0.2-0.3-0.5-0.3-0.9v-3.5c0-0.1,0.1-0.2,0.2-0.2h0.6c0.1,0,0.2,0.1,0.2,0.2v3.4c0,0.2,0,0.3,0.1,0.3s0.2,0.1,0.3,0.1h0.5
			c0.2,0,0.3,0,0.3-0.1c0.1-0.1,0.1-0.2,0.1-0.3v-3.4C40.5,36.1,40.6,36,40.7,36z"/>
		<path class="st6" d="M43.9,40.9h-0.6c-0.1,0-0.2-0.1-0.2-0.2v-3.8c0-0.1,0-0.1-0.1-0.1h-0.9c-0.1,0-0.2-0.1-0.2-0.2v-0.5
			c0-0.1,0.1-0.2,0.2-0.2h2.9c0.1,0,0.2,0.1,0.2,0.2v0.5c0,0.1-0.1,0.2-0.2,0.2h-0.9c-0.1,0-0.1,0-0.1,0.1v3.8
			C44.1,40.8,44,40.9,43.9,40.9z"/>
		<path class="st6" d="M47.3,40.9h-0.6c-0.1,0-0.2-0.1-0.2-0.2v-3.8c0-0.1,0-0.1-0.1-0.1h-0.9c-0.1,0-0.2-0.1-0.2-0.2v-0.5
			c0-0.1,0.1-0.2,0.2-0.2h2.9c0.1,0,0.2,0.1,0.2,0.2v0.5c0,0.1-0.1,0.2-0.2,0.2h-0.9c-0.1,0-0.1,0-0.1,0.1v3.8
			C47.5,40.8,47.4,40.9,47.3,40.9z"/>
		<path class="st6" d="M49.7,40.9h-0.7c-0.1,0-0.1-0.1-0.1-0.2l1.2-4.6c0-0.1,0.1-0.2,0.2-0.2h1c0.1,0,0.2,0.1,0.2,0.2l1.2,4.6
			c0,0.1,0,0.2-0.1,0.2h-0.7c-0.1,0-0.1,0-0.1,0s0-0.1,0-0.1l-0.2-0.8H50l-0.2,0.8c0,0.1,0,0.1,0,0.1C49.8,40.9,49.7,40.9,49.7,40.9
			z M50.8,36.9l-0.5,2.2h1.1L50.8,36.9L50.8,36.9z"/>
	</g>
</g>
<g id="dk">
</g>
<g id="cz" class="st2">
	<circle class="st3" cx="43.1" cy="38.3" r="11.4"/>
	<g class="st4">
		<rect x="33.5" y="36.3" class="st5" width="19.1" height="4.1"/>
		<path class="st6" d="M34.5,40.1H34c-0.1,0-0.1,0-0.1-0.1v-3.3c0-0.1,0-0.1,0.1-0.1h0.4c0.1,0,0.1,0,0.2,0.1l1.1,2.1h0v-2
			c0-0.1,0-0.1,0.1-0.1h0.5c0.1,0,0.1,0,0.1,0.1V40c0,0.1,0,0.1-0.1,0.1h-0.4c-0.1,0-0.1,0-0.2-0.1l-1.1-2h0v2
			C34.6,40.1,34.5,40.1,34.5,40.1z"/>
		<path class="st6" d="M38.4,40.1h-0.6c-0.3,0-0.5-0.1-0.7-0.2c-0.2-0.2-0.2-0.4-0.2-0.7v-1.7c0-0.3,0.1-0.5,0.2-0.7
			c0.2-0.2,0.4-0.2,0.7-0.2h0.6c0.3,0,0.5,0.1,0.7,0.2c0.2,0.2,0.2,0.4,0.2,0.7v1.7c0,0.3-0.1,0.5-0.2,0.7
			C38.9,40,38.7,40.1,38.4,40.1z M37.9,39.5h0.4c0.1,0,0.2,0,0.2-0.1s0.1-0.1,0.1-0.2v-1.7c0-0.1,0-0.2-0.1-0.2s-0.1-0.1-0.2-0.1
			h-0.4c-0.1,0-0.2,0-0.2,0.1s-0.1,0.1-0.1,0.2v1.7c0,0.1,0,0.2,0.1,0.2S37.8,39.5,37.9,39.5z"/>
		<path class="st6" d="M41.3,40.1h-0.7c-0.1,0-0.1,0-0.1-0.1l-0.8-3.3c0-0.1,0-0.1,0.1-0.1h0.5c0.1,0,0.1,0,0.1,0.1l0.6,2.7h0
			l0.6-2.7c0-0.1,0.1-0.1,0.1-0.1h0.5c0.1,0,0.1,0,0.1,0.1L41.4,40C41.4,40.1,41.4,40.1,41.3,40.1z"/>
		<path class="st6" d="M43.3,36.7V40c0,0.1,0,0.1-0.1,0.1h-0.5c-0.1,0-0.1,0-0.1-0.1v-3.3c0-0.1,0-0.1,0.1-0.1h0.5
			C43.3,36.6,43.3,36.7,43.3,36.7z"/>
		<path class="st6" d="M44.5,40.1H44c-0.1,0-0.1,0-0.1-0.1v-3.3c0-0.1,0-0.1,0.1-0.1h0.4c0.1,0,0.1,0,0.2,0.1l1.1,2.1h0v-2
			c0-0.1,0-0.1,0.1-0.1h0.5c0.1,0,0.1,0,0.1,0.1V40c0,0.1,0,0.1-0.1,0.1h-0.4c-0.1,0-0.1,0-0.2-0.1l-1.1-2h0v2
			C44.6,40.1,44.6,40.1,44.5,40.1z"/>
		<path class="st6" d="M47.6,40.1h-0.5c-0.1,0-0.1,0-0.1-0.1v-3.3c0-0.1,0-0.1,0.1-0.1h0.5c0.1,0,0.1,0,0.1,0.1v1.5h0
			c0-0.1,0.1-0.2,0.2-0.3l0.8-1.2c0-0.1,0.1-0.1,0.2-0.1h0.5c0,0,0.1,0,0.1,0c0,0,0,0.1,0,0.1l-1,1.4l1.2,1.8c0,0,0,0.1,0,0.1
			s0,0-0.1,0h-0.4c-0.1,0-0.2,0-0.3-0.1L48,38.7l-0.3,0.4V40C47.7,40.1,47.6,40.1,47.6,40.1z"/>
		<path class="st6" d="M50.3,40.1h-0.5c-0.1,0-0.1,0-0.1-0.1l0.9-3.3c0-0.1,0.1-0.1,0.2-0.1h0.7c0.1,0,0.1,0,0.2,0.1l0.9,3.3
			c0,0.1,0,0.1-0.1,0.1h-0.5c0,0-0.1,0-0.1,0s0,0,0-0.1l-0.2-0.6h-1.1L50.4,40C50.4,40,50.4,40.1,50.3,40.1
			C50.3,40.1,50.3,40.1,50.3,40.1z M51.1,37.3l-0.4,1.6h0.8L51.1,37.3L51.1,37.3z"/>
	</g>
</g>
</svg>
