<?xml version="1.0" encoding="utf-8"?>
<!-- Generator: Adobe Illustrator 20.0.0, SVG Export Plug-In . SVG Version: 6.00 Build 0)  -->
<svg version="1.1" id="Ebene_1" xmlns="http://www.w3.org/2000/svg" xmlns:xlink="http://www.w3.org/1999/xlink" x="0px" y="0px"
	 viewBox="0 0 58 58" style="enable-background:new 0 0 58 58;" xml:space="preserve">
<style type="text/css">
	.st0{fill:#565656;}
	.st1{fill:#FFFFFF;}
	.st2{fill:none;stroke:#565656;stroke-width:0.75;stroke-miterlimit:10;}
	.st3{fill:none;stroke:#FFFFFF;stroke-width:0.75;stroke-miterlimit:10;}
	.st4{fill:none;stroke:#565656;stroke-width:0.75;stroke-linecap:round;stroke-miterlimit:10;}
	.st5{fill-rule:evenodd;clip-rule:evenodd;fill:none;stroke:#565656;stroke-width:0.75;stroke-miterlimit:10;}
	.st6{fill:#A3467D;}
	.st7{fill-rule:evenodd;clip-rule:evenodd;fill:#FFFFFF;}
	.st8{fill:#FFFFFF;stroke:#FFFFFF;stroke-width:0.5;}
	.st9{fill:none;stroke:#565656;stroke-width:0.75;stroke-linecap:round;}
	.st10{fill:none;stroke:#565656;stroke-width:0.75;stroke-linecap:round;stroke-linejoin:round;stroke-miterlimit:10;}
	.st11{fill:#FFFFFF;stroke:#565656;stroke-width:0.75;stroke-linecap:round;stroke-miterlimit:10;}
	.st12{fill-rule:evenodd;clip-rule:evenodd;fill:none;stroke:#FFFFFF;}
	.st13{fill:none;stroke:#565656;stroke-width:0.75;}
</style>
<g>
	<g>
		<path class="st2" d="M28.9,32l0,11.9 M42.9,37.2l0,4 M14.9,37.2l0,4 M33.6,39.8l0,4 M38.2,39.1l0,4 M24.2,39.8l0,4 M19.6,39.1l0,4
			 M46.4,18.7l-0.1,19.8c0,7.3-8.1,8.5-17.5,8.5c-9.3,0.1-17.8-1.7-17.8-8.9c0-2.4,0-9.6,0-14c0,0-0.3-3.3,2.8-1.9
			c4,1.6,9.7,2.5,15.7,2.6c16,0.1,18.5-5.8,15.9-8.6c-2.6-2.9-9.5-4-15.5-4.1c-5.9-0.2-17.3,1.1-17.1,4.5c0.2,3.4,11.4,4.6,17.1,4.5
			c7.4-0.2,12.4-1.7,10.3-3.7c-2.4-2.4-16.9-2.2-20.4-0.9"/>
	</g>
</g>
</svg>
