<?xml version="1.0" encoding="utf-8"?>
<!-- Generator: Adobe Illustrator 21.0.0, SVG Export Plug-In . SVG Version: 6.00 Build 0)  -->
<svg version="1.1" id="Ebene_1" xmlns="http://www.w3.org/2000/svg" xmlns:xlink="http://www.w3.org/1999/xlink" x="0px" y="0px"
	 width="58px" height="58px" viewBox="0 0 58 58" enable-background="new 0 0 58 58" xml:space="preserve">
<g>
	<path fill="#FFFFFF" stroke="#696969" stroke-width="0.75" stroke-linecap="round" stroke-miterlimit="10" d="M47.2,42
		c0,0-9.1,2-12.1,3.1C33,45.9,32.3,43,34,42.2c1.8-0.8,11.5-2.6,14.3-3.3c2.8-0.6,4.5,4.5,1.5,5.4c-3.6,1-7.9,1.8-13.8,3.4
		c-2.5,0.7-4.7,0.4-10.8-1.3c-4-1.2-9.7-2-12.4-3.4c-2.7-1.3-1.4-3.3-0.4-4.3c0,0,1.9-2.2,14.4-4.3L49,38.9"/>
	
		<line fill="#FFFFFF" stroke="#696969" stroke-width="0.75" stroke-linecap="round" stroke-miterlimit="10" x1="23.1" y1="29.4" x2="10.8" y2="31.9"/>
	<path fill="#FFFFFF" stroke="#696969" stroke-width="0.75" stroke-linecap="round" stroke-miterlimit="10" d="M12,35.1
		c0,0,9.7,2,12.7,3.1c2.1,0.8,2.9-2.1,1.1-2.9S14.3,32.6,11.5,32c-2.8-0.6-4.4,4.2-1.5,5.4c3,1.3,11.2,3.3,14.7,3.8
		c2.6,0.4,3.8,0,9.9-1.8c4-1.2,9.7-2,12.4-3.4c2.7-1.3,1.4-3.3,0.4-4.3c0,0-1.7-1.5-7.4-3"/>
	<g>
		<circle fill="none" stroke="#696969" stroke-width="0.75" stroke-miterlimit="10" cx="31.2" cy="20.1" r="12.3"/>
		<g>
			<line fill="none" stroke="#696969" stroke-linecap="round" stroke-miterlimit="10" x1="27.4" y1="26.8" x2="34.4" y2="14.2"/>
			<circle fill="none" stroke="#696969" stroke-linecap="round" stroke-miterlimit="10" cx="27.1" cy="16.9" r="3"/>
			<circle fill="none" stroke="#696969" stroke-linecap="round" stroke-miterlimit="10" cx="35.1" cy="23.9" r="3"/>
		</g>
	</g>
</g>
</svg>
