<?xml version="1.0" encoding="utf-8"?>
<!-- Generator: Adobe Illustrator 20.0.0, SVG Export Plug-In . SVG Version: 6.00 Build 0)  -->
<svg version="1.1" id="Ebene_1" xmlns="http://www.w3.org/2000/svg" xmlns:xlink="http://www.w3.org/1999/xlink" x="0px" y="0px"
	 viewBox="0 0 58 58" style="enable-background:new 0 0 58 58;" xml:space="preserve">
<style type="text/css">
	.st0{fill:#565656;}
	.st1{fill:#FFFFFF;}
	.st2{fill:none;stroke:#565656;stroke-width:0.75;stroke-miterlimit:10;}
	.st3{fill:none;stroke:#FFFFFF;stroke-width:0.75;stroke-miterlimit:10;}
	.st4{fill:none;stroke:#565656;stroke-width:0.75;stroke-linecap:round;stroke-miterlimit:10;}
	.st5{fill-rule:evenodd;clip-rule:evenodd;fill:none;stroke:#565656;stroke-width:0.75;stroke-miterlimit:10;}
	.st6{fill:#A3467D;}
	.st7{fill-rule:evenodd;clip-rule:evenodd;fill:#FFFFFF;}
	.st8{fill:#FFFFFF;stroke:#FFFFFF;stroke-width:0.5;}
	.st9{fill:none;stroke:#565656;stroke-width:0.75;stroke-linecap:round;}
	.st10{fill:none;stroke:#565656;stroke-width:0.75;stroke-linecap:round;stroke-linejoin:round;stroke-miterlimit:10;}
	.st11{fill:#FFFFFF;stroke:#565656;stroke-width:0.75;stroke-linecap:round;stroke-miterlimit:10;}
	.st12{fill-rule:evenodd;clip-rule:evenodd;fill:none;stroke:#FFFFFF;}
	.st13{fill:none;stroke:#565656;stroke-width:0.75;}
</style>
<g>
	<path class="st4" d="M23.7,40.9l-6.3-0.1c0,0-2-0.4-2,1.6c0,1.3,0.6,1.8,2,1.7c1.4,0,6.5,0.1,7.3,0c2.4,0,3.2,0.1,3.7-1.2l9.8-27.9
		c0,0,1.6-3-1.7-3H27c0,0-1.1-0.4-2.5,2.8c-1.5,3.2-10.9,24-11.8,25.7c-0.8,1.7-2.4,6.4,2.6,6.5c4,0.1,22.3,0,22.3,0
		s2.3,0.2,2.5-1.5c0.3-1.8,3.6-21.4,5.1-27.2c0.4-1.7-1-1.7-1-1.7l-6.4-0.3"/>
</g>
</svg>
