<?xml version="1.0" encoding="utf-8"?>
<!-- Generator: Adobe Illustrator 20.0.0, SVG Export Plug-In . SVG Version: 6.00 Build 0)  -->
<svg version="1.1" id="Ebene_1" xmlns="http://www.w3.org/2000/svg" xmlns:xlink="http://www.w3.org/1999/xlink" x="0px" y="0px"
	 viewBox="0 0 58 58" style="enable-background:new 0 0 58 58;" xml:space="preserve">
<style type="text/css">
	.st0{fill:#565656;}
	.st1{fill:#FFFFFF;}
	.st2{fill:none;stroke:#565656;stroke-width:0.75;stroke-miterlimit:10;}
	.st3{fill:none;stroke:#FFFFFF;stroke-width:0.75;stroke-miterlimit:10;}
	.st4{fill:none;stroke:#565656;stroke-width:0.75;stroke-linecap:round;stroke-miterlimit:10;}
	.st5{fill-rule:evenodd;clip-rule:evenodd;fill:none;stroke:#565656;stroke-width:0.75;stroke-miterlimit:10;}
	.st6{fill:#A3467D;}
	.st7{fill-rule:evenodd;clip-rule:evenodd;fill:#FFFFFF;}
	.st8{fill:#FFFFFF;stroke:#FFFFFF;stroke-width:0.5;}
	.st9{fill:none;stroke:#565656;stroke-width:0.75;stroke-linecap:round;}
	.st10{fill:none;stroke:#565656;stroke-width:0.75;stroke-linecap:round;stroke-linejoin:round;stroke-miterlimit:10;}
	.st11{fill:#FFFFFF;stroke:#565656;stroke-width:0.75;stroke-linecap:round;stroke-miterlimit:10;}
	.st12{fill-rule:evenodd;clip-rule:evenodd;fill:none;stroke:#FFFFFF;}
	.st13{fill:none;stroke:#565656;stroke-width:0.75;}
</style>
<g>
	<g>
		<line class="st9" x1="45.8" y1="24.3" x2="43" y2="25.7"/>
		<line class="st9" x1="17.8" y1="38.4" x2="9.7" y2="42.4"/>
		<ellipse transform="matrix(0.9065 -0.4223 0.4223 0.9065 -5.6477 22.41)" class="st13" cx="47.8" cy="24" rx="1.9" ry="1.9"/>
	</g>
	<g>
		<line class="st9" x1="43.5" y1="15.4" x2="38.4" y2="21.4"/>
		<line class="st9" x1="20.4" y1="42.4" x2="16.6" y2="46.9"/>
		<ellipse transform="matrix(0.5051 -0.863 0.863 0.5051 10.1832 45.6901)" class="st13" cx="44.9" cy="14" rx="1.9" ry="1.9"/>
	</g>
	<g>
		
			<ellipse transform="matrix(0.1484 -0.9889 0.9889 0.1484 -6.5406 58.6728)" class="st2" cx="30.8" cy="33.1" rx="13.9" ry="13.9"/>
		<path class="st2" d="M24.7,20.6c0,0,1.8,10.1,20,11.6"/>
		<path class="st2" d="M20.6,23.7c0,0-0.9,17.3,18.9,20.4"/>
		<path class="st2" d="M22.4,22c0,0,0.8,13.4,20.5,18"/>
		<path class="st2" d="M28.3,26.3c0,0,5.1-1,9.1-5.4"/>
		<path class="st2" d="M34.6,30.1c0,0,4.1-1.8,4.8-7.9"/>
		<path class="st2" d="M25.1,36.7c0,0-5.2,1.6-7.9-0.6"/>
		<path class="st2" d="M21,28.1c0,0-2.6-0.4-2.7-1.1"/>
		<path class="st2" d="M41.3,24c0,0,0.2,3.9-1.6,7.6"/>
		<path class="st2" d="M32.8,42.4c0,0-3.6,3.2-9.4,2.5"/>
	</g>
</g>
</svg>
